<svg xmlns="http://www.w3.org/2000/svg" width="1920.002" height="40" viewBox="0 0 1920.002 40">
  <path id="header-shape-bottom-white" d="M1920,0h0V0H960.357c81.221,0,163.406.861,244.27,2.557,80.408,1.682,161.73,4.236,241.707,7.594,79.445,3.332,159.7,7.543,238.539,12.518C1763.246,27.615,1842.355,33.447,1920,40ZM953.117,0H0L0,40c77.605-6.551,156.711-12.385,235.123-17.33C314,17.693,394.254,13.482,473.662,10.152c79.977-3.357,161.3-5.912,241.705-7.594C794.064.91,874.055.049,953.117,0Z" transform="translate(1920.002 40) rotate(180)" fill="#fff"/>
</svg>
