<svg xmlns="http://www.w3.org/2000/svg" width="168.002" height="207.076" viewBox="0 0 168.002 207.076">
  <path id="Subtraction_20" data-name="Subtraction 20" d="M16688,11112.074a173.188,173.188,0,0,1-29.875-2.529,132.046,132.046,0,0,1-25.5-7,78.635,78.635,0,0,1-19.314-10.592,41.186,41.186,0,0,1-9.312-9.731V10905h168v177.22a41.237,41.237,0,0,1-9.312,9.734,78.635,78.635,0,0,1-19.314,10.592,132.131,132.131,0,0,1-25.5,7A173.211,173.211,0,0,1,16688,11112.074Z" transform="translate(-16604 -10904.998)" fill="#fff"/>
</svg>
