<svg xmlns="http://www.w3.org/2000/svg" viewBox="0 0 1728.001 630">
  <path id="Subtraction_18" data-name="Subtraction 18" d="M1824,630H96l863.644,0c-81.179,0-163.363-1.291-244.27-3.835-80.424-2.523-161.746-6.356-241.707-11.391-79.473-5-159.729-11.316-238.54-18.776-46.054-4.359-92.864-9.23-139.128-14.478V9a9.01,9.01,0,0,1,9-9H1815a9.01,9.01,0,0,1,9,9V581.519c-46.3,5.253-93.1,10.123-139.124,14.476-78.835,7.461-159.091,13.778-238.537,18.776-79.96,5.035-161.281,8.868-241.7,11.391-78.765,2.474-158.756,3.765-237.751,3.835H1824Z" transform="translate(-96)" fill="#fff"/>
</svg>
