<svg xmlns="http://www.w3.org/2000/svg" width="179.252" height="48" viewBox="0 0 179.252 48">
  <g id="logo_wit" data-name="logo wit" transform="translate(-17.641 -11.08)">
    <path id="Path_68409" data-name="Path 68409" d="M42.813,11.08A25.2,25.2,0,0,0,17.64,36.255a21.675,21.675,0,0,0,7.513,16.759,26.908,26.908,0,0,0,17.24,6.066,17.788,17.788,0,0,1-5.361-2.354,19.1,19.1,0,0,1-5.48-5.242A16.767,16.767,0,0,1,22.6,36.255a20.219,20.219,0,1,1,40.438,0,17.949,17.949,0,0,1-1.065,6.183,16.928,16.928,0,0,1-8.613,9.384c-.092.048-.186.1-.282.142-.135.064-.269.129-.406.189l-.053.024-.059.027h0l.059-.027-.1.042c-.2.087-.412.17-.624.245l-.109.036c-.181.063-.361.123-.546.179a12.7,12.7,0,0,1-3.678.538,13.6,13.6,0,0,1-8.85-3.275,9.686,9.686,0,0,1-2.374-3.506,10.467,10.467,0,0,1-.764-3.957c0-4.915,3.284-8.914,7.321-8.914s7.321,4,7.321,8.914c0,4.541-2.805,8.3-6.415,8.844a11.993,11.993,0,0,0,9.133-.876,15.047,15.047,0,0,0,2.238-7.967c0-7.648-5.508-13.87-12.277-13.87s-12.277,6.223-12.277,13.87a14.66,14.66,0,0,0,4.14,10.371c-.014-.006-.029-.01-.043-.014a18.528,18.528,0,0,0,3.164,2.608,16.754,16.754,0,0,0,6.5,2.428,18.972,18.972,0,0,0,4,.262,16.391,16.391,0,0,0,4.194-.647,22.387,22.387,0,0,0,7.905-4.475A21.679,21.679,0,0,0,67.99,36.255,25.2,25.2,0,0,0,42.815,11.08Z" fill="#fff"/>
    <path id="Path_68410" data-name="Path 68410" d="M456.56,78.284a8.37,8.37,0,0,1-3.277-3.108,9.063,9.063,0,0,1,0-8.987,8.351,8.351,0,0,1,3.277-3.108,9.744,9.744,0,0,1,4.687-1.121,9.855,9.855,0,0,1,3.964.771,7.944,7.944,0,0,1,2.976,2.217l-2.505,2.313a5.389,5.389,0,0,0-4.241-1.976,5.63,5.63,0,0,0-2.8.687,4.88,4.88,0,0,0-1.915,1.915,6.034,6.034,0,0,0,0,5.591,4.88,4.88,0,0,0,1.915,1.915,5.626,5.626,0,0,0,2.8.687,5.366,5.366,0,0,0,4.241-2l2.505,2.313a7.8,7.8,0,0,1-2.987,2.24,9.914,9.914,0,0,1-3.975.771,9.692,9.692,0,0,1-4.663-1.121Z" transform="translate(-373.576 -43.751)" fill="#fff"/>
    <path id="Path_68411" data-name="Path 68411" d="M577.93,52.65a2.041,2.041,0,0,1,0-2.987,2.39,2.39,0,0,1,1.687-.6,2.447,2.447,0,0,1,1.687.579,1.851,1.851,0,0,1,.65,1.446,2.047,2.047,0,0,1-.65,1.554,2.642,2.642,0,0,1-3.374.013Zm-.193,2.41H581.5V68.023h-3.759Z" transform="translate(-481.225 -32.658)" fill="#fff"/>
    <path id="Path_68412" data-name="Path 68412" d="M634.45,90.982a6.755,6.755,0,0,1,2.638-.482v3.469q-.626-.048-.844-.048a3.447,3.447,0,0,0-2.531.9,3.651,3.651,0,0,0-.915,2.711v6.12H629.04V90.693h3.59V92.4a4.193,4.193,0,0,1,1.819-1.422Z" transform="translate(-525.732 -68.292)" fill="#fff"/>
    <path id="Path_68413" data-name="Path 68413" d="M692.216,103a6.408,6.408,0,0,1-2.578-2.374,6.863,6.863,0,0,1,0-6.891,6.408,6.408,0,0,1,2.578-2.374,7.969,7.969,0,0,1,3.723-.855,7.186,7.186,0,0,1,3.579.855,5.077,5.077,0,0,1,2.229,2.446l-2.916,1.567a3.189,3.189,0,0,0-2.916-1.784,3.3,3.3,0,0,0-2.434.964,4.06,4.06,0,0,0,0,5.253,3.294,3.294,0,0,0,2.434.964,3.154,3.154,0,0,0,2.916-1.784l2.916,1.59a5.181,5.181,0,0,1-2.229,2.41,7.128,7.128,0,0,1-3.579.867,8,8,0,0,1-3.723-.856Z" transform="translate(-577.041 -68.3)" fill="#fff"/>
    <path id="Path_68414" data-name="Path 68414" d="M806.572,91.871v12.964h-3.566v-1.543a4.986,4.986,0,0,1-1.784,1.289,5.611,5.611,0,0,1-2.24.446,5.524,5.524,0,0,1-4.048-1.47A5.858,5.858,0,0,1,793.44,99.2V91.87H797.2v6.77q0,3.132,2.626,3.133a2.823,2.823,0,0,0,2.169-.88,3.707,3.707,0,0,0,.82-2.615V91.87h3.759Z" transform="translate(-667.097 -69.47)" fill="#fff"/>
    <path id="Path_68415" data-name="Path 68415" d="M908.83,56.8h3.759V74.679H908.83Z" transform="translate(-766.319 -39.314)" fill="#fff"/>
    <path id="Path_68416" data-name="Path 68416" d="M962,91.951a5.487,5.487,0,0,1,1.614,4.325v7.4H960.1v-1.614q-1.061,1.808-3.951,1.808a6.131,6.131,0,0,1-2.591-.506,3.861,3.861,0,0,1-1.674-1.4,3.637,3.637,0,0,1-.579-2.025,3.376,3.376,0,0,1,1.362-2.843,6.939,6.939,0,0,1,4.2-1.035h2.987a2.4,2.4,0,0,0-.747-1.892,3.292,3.292,0,0,0-2.24-.663,6.528,6.528,0,0,0-2.036.325,5.371,5.371,0,0,0-1.7.88l-1.349-2.626a8.149,8.149,0,0,1,2.542-1.156,11.378,11.378,0,0,1,3.048-.409A6.748,6.748,0,0,1,962,91.953Zm-3.2,8.939a2.444,2.444,0,0,0,1.061-1.313V98.252h-2.578q-2.314,0-2.313,1.517a1.354,1.354,0,0,0,.566,1.145,2.545,2.545,0,0,0,1.554.422A3.237,3.237,0,0,0,958.795,100.89Z" transform="translate(-802.838 -68.309)" fill="#fff"/>
    <path id="Path_68417" data-name="Path 68417" d="M1065.56,90.982a6.755,6.755,0,0,1,2.638-.482v3.469q-.626-.048-.844-.048a3.447,3.447,0,0,0-2.531.9,3.651,3.651,0,0,0-.915,2.711v6.12h-3.759V90.693h3.59V92.4a4.192,4.192,0,0,1,1.819-1.422Z" transform="translate(-896.436 -68.292)" fill="#fff"/>
    <path id="Path_68418" data-name="Path 68418" d="M1154.91,64.02h3.9V80.887h-3.9Z" transform="translate(-977.919 -45.522)" fill="#fff"/>
    <path id="Path_68419" data-name="Path 68419" d="M1197.447,67.2h-5.4V64.02h14.7V67.2h-5.4V80.887h-3.9Z" transform="translate(-1009.855 -45.522)" fill="#fff"/>
    <path id="Path_68420" data-name="Path 68420" d="M469.237,222.177v11.229a5.354,5.354,0,0,1-6.1,6.12,10.025,10.025,0,0,1-3.277-.53,6.366,6.366,0,0,1-2.481-1.47l.65-.916a6.621,6.621,0,0,0,2.266,1.349,8.191,8.191,0,0,0,2.819.482,5.089,5.089,0,0,0,3.71-1.192,5.011,5.011,0,0,0,1.2-3.7v-2.12a5.336,5.336,0,0,1-2.144,2.12,6.356,6.356,0,0,1-3.084.747,6.635,6.635,0,0,1-3.193-.783,5.762,5.762,0,0,1-2.253-2.18,6.489,6.489,0,0,1,0-6.314,5.687,5.687,0,0,1,2.253-2.169,6.631,6.631,0,0,1,3.193-.771,6.346,6.346,0,0,1,3.133.771,5.27,5.27,0,0,1,2.145,2.169v-2.843h1.156Zm-3.686,10.4a4.639,4.639,0,0,0,1.844-1.784,5.122,5.122,0,0,0,.663-2.615,5.058,5.058,0,0,0-.663-2.6,4.655,4.655,0,0,0-1.844-1.771,5.479,5.479,0,0,0-2.651-.639,5.406,5.406,0,0,0-2.638.639,4.678,4.678,0,0,0-1.831,1.771,5.061,5.061,0,0,0-.663,2.6,5.116,5.116,0,0,0,.663,2.615,4.652,4.652,0,0,0,1.831,1.784,5.41,5.41,0,0,0,2.638.639A5.483,5.483,0,0,0,465.551,232.573Z" transform="translate(-377.402 -181.435)" fill="#fff"/>
    <path id="Path_68421" data-name="Path 68421" d="M577.975,222.816a5.716,5.716,0,0,1,2.987-.736v1.181l-.289-.024a4.182,4.182,0,0,0-3.277,1.313,5.264,5.264,0,0,0-1.181,3.65v6.555H575.01V222.177h1.156v2.746a4.356,4.356,0,0,1,1.808-2.109Z" transform="translate(-479.273 -181.435)" fill="#fff"/>
    <path id="Path_68422" data-name="Path 68422" d="M625.893,234.041a5.9,5.9,0,0,1-2.253-2.277,7.006,7.006,0,0,1,0-6.577,5.913,5.913,0,0,1,2.253-2.277,6.723,6.723,0,0,1,6.434,0,5.913,5.913,0,0,1,2.253,2.277,7.006,7.006,0,0,1,0,6.577,5.894,5.894,0,0,1-2.253,2.277,6.723,6.723,0,0,1-6.434,0Zm5.806-.94a4.859,4.859,0,0,0,1.808-1.879,6.022,6.022,0,0,0,0-5.493,4.839,4.839,0,0,0-1.808-1.879,5.316,5.316,0,0,0-5.182,0,4.839,4.839,0,0,0-1.807,1.879,6.021,6.021,0,0,0,0,5.493,4.829,4.829,0,0,0,1.807,1.879,5.307,5.307,0,0,0,5.182,0Z" transform="translate(-520.384 -181.444)" fill="#fff"/>
    <path id="Path_68423" data-name="Path 68423" d="M740.785,222.77v12.578h-1.156v-2.7a4.653,4.653,0,0,1-1.855,2.06,5.526,5.526,0,0,1-2.892.736,4.817,4.817,0,0,1-5.252-5.324v-7.349h1.205v7.252a4.43,4.43,0,0,0,1.084,3.228,4.088,4.088,0,0,0,3.06,1.108,4.382,4.382,0,0,0,3.361-1.326,5.009,5.009,0,0,0,1.241-3.566v-6.7h1.205Z" transform="translate(-612.228 -182.029)" fill="#fff"/>
    <path id="Path_68424" data-name="Path 68424" d="M846.584,222.917a5.881,5.881,0,0,1,2.229,2.266,6.657,6.657,0,0,1,.807,3.3,6.728,6.728,0,0,1-.807,3.314,5.75,5.75,0,0,1-2.229,2.266,6.33,6.33,0,0,1-3.181.807,5.887,5.887,0,0,1-3.013-.783,5.415,5.415,0,0,1-2.1-2.18v7.543H837.09V222.2h1.156v2.963a5.484,5.484,0,0,1,2.109-2.253,5.865,5.865,0,0,1,3.048-.807,6.384,6.384,0,0,1,3.181.82Zm-.65,10.192a4.817,4.817,0,0,0,1.819-1.879,6.021,6.021,0,0,0,0-5.493,4.817,4.817,0,0,0-1.819-1.879,5.338,5.338,0,0,0-5.193,0,4.839,4.839,0,0,0-1.807,1.879,6.021,6.021,0,0,0,0,5.493,4.829,4.829,0,0,0,1.807,1.879,5.328,5.328,0,0,0,5.193,0Z" transform="translate(-704.631 -181.452)" fill="#fff"/>
  </g>
</svg>
