<svg xmlns="http://www.w3.org/2000/svg" width="390" height="20" viewBox="0 0 390 20">
  <path id="mobile-footer-shape" d="M24531,19805.975h0v0h-194.926c16.5,0,33.191-.43,49.617-1.277,16.332-.842,32.852-2.117,49.1-3.8,16.139-1.666,32.439-3.771,48.453-6.26,15.92-2.471,31.99-5.389,47.76-8.664Zm-196.4,0H24141l0-20c15.764,3.275,31.832,6.193,47.76,8.664,16.02,2.49,32.322,4.6,48.453,6.26,16.244,1.68,32.762,2.955,49.1,3.8,15.984.824,32.232,1.254,48.293,1.277Z" transform="translate(-24141 -19785.975)" fill="#15af97"/>
</svg>
